<?xml version="1.0" standalone="no"?>
<!DOCTYPE svg PUBLIC "-//W3C//DTD SVG 20010904//EN"
 "http://www.w3.org/TR/2001/REC-SVG-20010904/DTD/svg10.dtd">
<svg version="1.0" xmlns="http://www.w3.org/2000/svg"
 width="1024.000000pt" height="1024.000000pt" viewBox="0 0 1024.000000 1024.000000"
 preserveAspectRatio="xMidYMid meet">

<g transform="translate(0.000000,1024.000000) scale(0.100000,-0.100000)"
fill="#000000" stroke="none">
<path d="M5040 8194 c-286 -34 -487 -109 -680 -252 -131 -97 -281 -255 -356
-373 -79 -125 -161 -335 -198 -504 -37 -170 -46 -424 -22 -605 34 -255 104
-443 249 -670 73 -114 66 -104 72 -98 3 3 -13 56 -35 119 -56 154 -85 282
-110 479 -11 91 -23 185 -27 209 -6 41 -5 44 13 37 64 -26 165 -38 269 -32
253 12 494 120 694 311 87 83 197 210 243 281 73 114 133 266 147 376 l8 63 2
-57 c5 -217 72 -411 198 -568 150 -186 315 -315 493 -385 85 -33 237 -65 310
-65 l61 0 -6 -72 c-16 -194 -72 -531 -104 -625 -10 -29 -15 -53 -12 -53 11 1
130 185 166 260 111 224 188 603 170 840 -31 417 -171 721 -461 1000 -208 200
-429 316 -694 361 -112 19 -320 31 -390 23z"/>
<path d="M5198 6812 c-26 -43 -183 -190 -283 -265 -152 -113 -334 -191 -524
-222 -63 -11 -129 -16 -168 -12 l-64 5 5 -37 c3 -20 8 -70 11 -111 9 -105 42
-309 66 -404 21 -87 89 -275 121 -341 106 -212 280 -409 471 -535 102 -68 167
-95 265 -111 60 -10 78 -9 153 10 162 41 308 130 455 276 148 148 262 328 324
514 41 122 97 413 105 546 3 61 8 117 11 127 4 13 -5 17 -48 23 -109 14 -276
58 -353 95 -155 72 -332 222 -462 388 -36 45 -66 82 -67 82 -1 0 -9 -13 -18
-28z"/>
<path d="M6070 5565 c0 -8 13 -36 29 -62 63 -102 109 -267 121 -431 6 -76 16
-136 26 -157 26 -55 123 -138 213 -181 l81 -38 -8 -41 c-4 -22 -7 -89 -7 -150
0 -106 2 -113 37 -187 20 -43 51 -98 67 -122 17 -24 58 -97 92 -163 81 -156
95 -179 146 -240 37 -44 54 -55 112 -74 80 -26 125 -21 172 18 28 24 32 25 41
10 26 -47 138 -64 212 -33 22 9 55 28 74 43 47 36 139 162 191 263 24 47 61
115 82 151 22 36 53 103 71 150 28 75 32 96 32 194 1 61 -1 127 -4 149 l-5 38
75 24 c104 33 179 80 204 129 11 21 28 84 38 139 18 103 40 157 148 353 l51
92 -23 12 c-16 9 -76 13 -198 14 -172 0 -176 -1 -236 -28 -73 -34 -111 -71
-156 -152 -25 -44 -45 -66 -76 -84 -83 -45 -132 -52 -408 -58 -286 -6 -422 4
-503 39 -58 25 -84 49 -127 120 -64 105 -125 141 -383 227 -168 56 -181 58
-181 36z m834 -797 c29 -13 50 -41 83 -110 25 -55 27 -54 -72 -38 -70 11 -95
34 -95 88 0 36 23 72 46 72 7 0 24 -5 38 -12z m650 -10 c18 -26 21 -70 6 -98
-11 -21 -52 -36 -129 -45 -59 -8 -59 -9 -25 73 32 79 115 118 148 70z m-239
-529 c74 -21 124 -64 161 -142 52 -109 47 -180 -20 -270 -38 -52 -131 -80
-186 -57 -44 18 -89 133 -56 146 22 8 137 174 134 192 -2 8 -16 24 -31 36 -23
17 -42 20 -122 21 -80 0 -98 -3 -122 -21 -39 -29 -40 -56 -5 -92 16 -16 46
-58 67 -91 43 -72 43 -109 -2 -162 -25 -29 -30 -31 -79 -27 -68 6 -114 40
-150 114 -36 74 -37 133 -4 198 62 122 137 165 290 166 47 0 103 -5 125 -11z"/>
<path d="M2740 5226 c-193 -57 -359 -208 -448 -406 -44 -98 -100 -282 -128
-420 -15 -74 -30 -138 -33 -142 -4 -4 -36 2 -71 13 -48 15 -85 20 -142 17 -72
-3 -79 -5 -112 -37 l-36 -35 -93 13 c-52 6 -138 25 -192 41 -54 17 -111 30
-127 30 -97 0 -136 -95 -95 -231 46 -155 118 -171 297 -69 47 27 116 61 153
76 50 19 75 36 94 63 41 55 52 61 116 61 72 0 159 -24 194 -54 25 -21 25 -23
10 -53 -27 -52 -30 -101 -17 -359 14 -289 21 -315 90 -334 31 -8 40 -16 40
-33 0 -12 11 -76 24 -142 13 -66 39 -217 56 -335 18 -118 45 -267 62 -330 16
-63 33 -142 37 -175 24 -179 194 -434 364 -548 264 -177 577 -163 844 37 159
120 273 305 335 541 20 80 23 113 23 300 0 200 -5 270 -56 750 -19 180 -43
264 -128 447 -17 36 -31 70 -31 75 0 5 -7 18 -15 29 -14 18 -15 17 -11 -11 2
-16 7 -169 11 -340 4 -207 15 -399 32 -580 36 -387 27 -545 -42 -752 -33 -97
-95 -192 -176 -269 -114 -109 -253 -161 -406 -152 -113 7 -183 34 -281 108
-88 66 -312 312 -312 343 0 5 22 -16 49 -45 59 -65 123 -101 214 -122 90 -21
132 -20 238 5 168 39 287 146 345 313 20 54 28 116 69 518 19 189 38 353 41
366 5 17 14 22 41 22 55 0 99 50 108 123 8 61 -9 531 -20 558 -3 9 -17 21 -31
27 -21 10 -24 18 -24 61 0 178 -81 514 -161 674 -79 155 -237 297 -389 347
-81 28 -244 36 -310 16z m233 -191 c84 -22 135 -51 194 -111 72 -75 126 -170
168 -299 53 -161 74 -266 76 -386 1 -105 1 -105 -29 -135 -37 -37 -38 -45 -51
-354 -11 -242 -6 -300 25 -318 12 -7 13 -20 4 -82 -5 -41 -23 -214 -40 -385
-16 -170 -37 -337 -45 -370 -38 -143 -136 -234 -286 -266 -58 -13 -140 1 -215
35 -97 44 -213 171 -239 259 -8 29 -33 180 -55 337 -45 314 -59 397 -71 422
-7 12 -4 18 9 22 49 16 56 119 32 465 -13 179 -21 211 -59 234 -20 12 -31 28
-36 54 -3 21 -18 57 -31 81 l-25 42 37 128 c47 161 120 342 167 413 125 189
286 262 470 214z"/>
<path d="M4560 4803 c-18 -104 -64 -204 -136 -293 -36 -44 -73 -84 -84 -90
-11 -6 -20 -15 -20 -20 0 -14 39 -96 71 -150 14 -25 75 -128 134 -230 60 -102
116 -196 125 -210 10 -14 56 -90 103 -170 47 -80 123 -208 169 -285 46 -77 98
-165 115 -195 17 -30 47 -82 66 -115 20 -33 40 -66 44 -73 5 -9 28 19 69 85
33 54 104 166 156 248 52 83 120 193 152 245 32 52 103 168 159 257 109 173
256 412 310 504 l33 56 -49 53 c-55 60 -112 136 -145 193 -28 49 -82 202 -82
233 0 13 -3 24 -8 24 -4 0 -41 -23 -82 -51 -100 -68 -147 -91 -260 -127 -140
-44 -233 -57 -316 -43 -140 24 -243 67 -380 156 -44 30 -92 57 -106 60 -25 6
-26 5 -38 -62z"/>
<path d="M3817 4200 c-15 -16 -27 -35 -27 -40 0 -6 22 -67 50 -135 27 -69 57
-155 65 -192 9 -37 28 -110 44 -162 16 -53 36 -127 45 -166 11 -48 54 -144
138 -310 67 -132 126 -257 132 -277 l12 -37 69 56 c39 31 91 71 118 90 l47 35
-28 36 c-37 48 -54 76 -111 180 -26 48 -115 209 -198 357 -83 149 -170 308
-193 355 -42 83 -129 240 -134 240 -2 0 -15 -13 -29 -30z"/>
<path d="M6490 4187 c0 -8 -19 -45 -43 -83 -123 -196 -417 -757 -404 -770 1
-1 37 7 80 19 73 19 81 19 147 5 l70 -15 0 68 c0 71 18 115 121 290 31 51 41
81 49 142 5 43 16 103 24 135 29 116 29 126 -1 176 -28 46 -43 57 -43 33z"/>
<path d="M7720 3957 c-91 -186 -143 -269 -202 -322 -93 -84 -187 -116 -336
-116 -194 1 -324 64 -413 202 -39 61 -105 213 -114 262 -4 21 -11 37 -16 37
-15 0 -46 -73 -53 -125 -13 -101 -30 -152 -78 -235 -27 -47 -55 -107 -64 -135
-18 -63 -29 -183 -17 -211 4 -12 35 -44 69 -72 106 -88 161 -196 171 -337 16
-228 -126 -430 -344 -490 -35 -10 -63 -19 -63 -21 0 -2 -7 -51 -16 -109 -19
-128 -12 -168 48 -293 23 -48 56 -123 74 -167 25 -61 37 -80 51 -78 10 1 74 7
143 14 176 18 641 15 865 -5 200 -19 319 -35 475 -66 111 -22 130 -21 130 7 0
44 55 226 92 307 106 232 125 707 41 1091 -11 51 -35 105 -88 200 -117 207
-139 266 -210 565 -34 146 -61 230 -74 230 -3 0 -35 -60 -71 -133z"/>
<path d="M6115 3267 c-176 -59 -284 -210 -285 -400 0 -111 53 -224 148 -315
l55 -52 -21 -85 c-28 -115 -71 -201 -192 -385 -259 -395 -376 -538 -457 -560
-47 -12 -107 -1 -150 27 -40 26 -133 176 -298 478 -65 120 -118 215 -205 365
-45 80 -112 197 -148 260 -152 269 -162 282 -191 275 -14 -3 -33 -13 -41 -21
-13 -13 -7 -30 53 -148 37 -73 138 -256 223 -407 187 -329 308 -544 395 -699
73 -131 155 -222 216 -240 116 -34 205 -19 292 50 26 21 92 98 147 171 125
169 366 529 424 634 63 115 166 343 190 425 11 38 25 72 30 75 14 8 13 84 -1
126 -34 100 -140 126 -212 51 -14 -15 -38 -57 -53 -95 -15 -37 -33 -66 -38
-64 -24 7 -66 110 -66 161 0 100 82 221 177 261 89 38 211 12 292 -61 93 -84
122 -189 86 -311 -18 -60 -86 -141 -151 -179 -33 -19 -46 -35 -54 -62 -13 -47
-13 -62 0 -62 21 0 150 71 184 100 165 145 167 429 4 582 -102 96 -248 139
-353 105z"/>
<path d="M27 103 c-25 -4 -27 -8 -27 -54 0 -48 1 -49 30 -49 30 0 30 1 30 55
0 30 -1 54 -2 54 -2 -1 -15 -4 -31 -6z"/>
</g>
</svg>
