<svg width="300" height="300" xmlns="http://www.w3.org/2000/svg" xml:space="preserve" version="1.1">
 <desc>Created with Fabric.js 3.5.0</desc>

 <g>
  <title>Layer 1</title>
  <g transform="matrix(0.243971 0 0 0.248169 713.78 677.851)" id="svg_2" vector-effect="non-scaling-stroke">
   <g id="svg_3" transform="matrix(0.1333 0 0 -0.1333 7.8377 -243.06)">
    <path id="svg_4" fill-rule=" nonzero" fill=" rgb(255,255,255)" stroke-miterlimit="4" stroke-linejoin=" miter" stroke-dashoffset="0" stroke-dasharray=" none" stroke=" none" stroke-linecap=" butt" d="m-17493.05374,18139.27142c-286,-34 -487,-109 -680,-252c-131,-97 -281,-255 -356,-373c-79,-125 -161,-335 -198,-504c-37,-170 -46,-424 -22,-605c34,-255 104,-443 249,-670c73,-114 66,-104 72,-98c3,3 -13,56 -35,119c-56,154 -85,282 -110,479c-11,91 -23,185 -27,209c-6,41 -5,44 13,37c64,-26 165,-38 269,-32c253,12 494,120 694,311c87,83 197,210 243,281c73,114 133,266 147,376l8,63l2,-57c5,-217 72,-411 198,-568c150,-186 315,-315 493,-385c85,-33 237,-65 310,-65l61,0l-6,-72c-16,-194 -72,-531 -104,-625c-10,-29 -15,-53 -12,-53c11,1 130,185 166,260c111,224 188,603 170,840c-31,417 -171,721 -461,1000c-208,200 -429,316 -694,361c-112,19 -320,31 -390,23z"/>
   </g>
   <g id="svg_5" transform="matrix(0.1333 0 0 -0.1333 4.3574 -91.5496)">
    <path id="svg_6" fill-rule=" nonzero" fill=" rgb(255,255,255)" stroke-miterlimit="4" stroke-linejoin=" miter" stroke-dashoffset="0" stroke-dasharray=" none" stroke=" none" stroke-linecap=" butt" d="m-17308.84769,17893.54047c-26,-43 -183,-190 -283,-265c-152,-113 -334,-191 -524,-222c-63,-11 -129,-16 -168,-12l-64,5l5,-37c3,-20 8,-70 11,-111c9,-105 42,-309 66,-404c21,-87 89,-275 121,-341c106,-212 280,-409 471,-535c102,-68 167,-95 265,-111c60,-10 78,-9 153,10c162,41 308,130 455,276c148,148 262,328 324,514c41,122 97,413 105,546c3,61 8,117 11,127c4,13 -5,17 -48,23c-109,14 -276,58 -353,95c-155,72 -332,222 -462,388c-36,45 -66,82 -67,82c-1,0 -9,-13 -18,-28z"/>
   </g>
   <g id="svg_7" transform="matrix(0.1333 0 0 -0.1333 279.362 64.2114)">
    <path id="svg_8" fill-rule=" nonzero" fill=" rgb(255,255,255)" stroke-miterlimit="4" stroke-linejoin=" miter" stroke-dashoffset="0" stroke-dasharray=" none" stroke=" none" stroke-linecap=" butt" d="m-18499.41849,17814.72455c0,-8 13,-36 29,-62c63,-102 109,-267 121,-431c6,-76 16,-136 26,-157c26,-55 123,-138 213,-181l81,-38l-8,-41c-4,-22 -7,-89 -7,-150c0,-106 2,-113 37,-187c20,-43 51,-98 67,-122c17,-24 58,-97 92,-163c81,-156 95,-179 146,-240c37,-44 54,-55 112,-74c80,-26 125,-21 172,18c28,24 32,25 41,10c26,-47 138,-64 212,-33c22,9 55,28 74,43c47,36 139,162 191,263c24,47 61,115 82,151c22,36 53,103 71,150c28,75 32,96 32,194c1,61 -1,127 -4,149l-5,38l75,24c104,33 179,80 204,129c11,21 28,84 38,139c18,103 40,157 148,353l51,92l-23,12c-16,9 -76,13 -198,14c-172,0 -176,-1 -236,-28c-73,-34 -111,-71 -156,-152c-25,-44 -45,-66 -76,-84c-83,-45 -132,-52 -408,-58c-286,-6 -422,4 -503,39c-58,25 -84,49 -127,120c-64,105 -125,141 -383,227c-168,56 -181,58 -181,36zm834,-797c29,-13 50,-41 83,-110c25,-55 27,-54 -72,-38c-70,11 -95,34 -95,88c0,36 23,72 46,72c7,0 24,-5 38,-12zm650,-10c18,-26 21,-70 6,-98c-11,-21 -52,-36 -129,-45c-59,-8 -59,-9 -25,73c32,79 115,118 148,70zm-239,-529c74,-21 124,-64 161,-142c52,-109 47,-180 -20,-270c-38,-52 -131,-80 -186,-57c-44,18 -89,133 -56,146c22,8 137,174 134,192c-2,8 -16,24 -31,36c-23,17 -42,20 -122,21c-80,0 -98,-3 -122,-21c-39,-29 -40,-56 -5,-92c16,-16 46,-58 67,-91c43,-72 43,-109 -2,-162c-25,-29 -30,-31 -79,-27c-68,6 -114,40 -150,114c-36,74 -37,133 -4,198c62,122 137,165 290,166c47,0 103,-5 125,-11z"/>
   </g>
   <g id="svg_9" transform="matrix(0.1333 0 0 -0.1333 -333.922 219.235)">
    <path id="svg_10" fill-rule=" nonzero" fill=" rgb(255,255,255)" stroke-miterlimit="4" stroke-linejoin=" miter" stroke-dashoffset="0" stroke-dasharray=" none" stroke=" none" stroke-linecap=" butt" d="m-17229.84329,18638.61005c-193,-57 -359,-208 -448,-406c-44,-98 -100,-282 -128,-420c-15,-74 -30,-138 -33,-142c-4,-4 -36,2 -71,13c-48,15 -85,20 -142,17c-72,-3 -79,-5 -112,-37l-36,-35l-93,13c-52,6 -138,25 -192,41c-54,17 -111,30 -127,30c-97,0 -136,-95 -95,-231c46,-155 118,-171 297,-69c47,27 116,61 153,76c50,19 75,36 94,63c41,55 52,61 116,61c72,0 159,-24 194,-54c25,-21 25,-23 10,-53c-27,-52 -30,-101 -17,-359c14,-289 21,-315 90,-334c31,-8 40,-16 40,-33c0,-12 11,-76 24,-142c13,-66 39,-217 56,-335c18,-118 45,-267 62,-330c16,-63 33,-142 37,-175c24,-179 194,-434 364,-548c264,-177 577,-163 844,37c159,120 273,305 335,541c20,80 23,113 23,300c0,200 -5,270 -56,750c-19,180 -43,264 -128,447c-17,36 -31,70 -31,75c0,5 -7,18 -15,29c-14,18 -15,17 -11,-11c2,-16 7,-169 11,-340c4,-207 15,-399 32,-580c36,-387 27,-545 -42,-752c-33,-97 -95,-192 -176,-269c-114,-109 -253,-161 -406,-152c-113,7 -183,34 -281,108c-88,66 -312,312 -312,343c0,5 22,-16 49,-45c59,-65 123,-101 214,-122c90,-21 132,-20 238,5c168,39 287,146 345,313c20,54 28,116 69,518c19,189 38,353 41,366c5,17 14,22 41,22c55,0 99,50 108,123c8,61 -9,531 -20,558c-3,9 -17,21 -31,27c-21,10 -24,18 -24,61c0,178 -81,514 -161,674c-79,155 -237,297 -389,347c-81,28 -244,36 -310,16zm233,-191c84,-22 135,-51 194,-111c72,-75 126,-170 168,-299c53,-161 74,-266 76,-386c1,-105 1,-105 -29,-135c-37,-37 -38,-45 -51,-354c-11,-242 -6,-300 25,-318c12,-7 13,-20 4,-82c-5,-41 -23,-214 -40,-385c-16,-170 -37,-337 -45,-370c-38,-143 -136,-234 -286,-266c-58,-13 -140,1 -215,35c-97,44 -213,171 -239,259c-8,29 -33,180 -55,337c-45,314 -59,397 -71,422c-7,12 -4,18 9,22c49,16 56,119 32,465c-13,179 -21,211 -59,234c-20,12 -31,28 -36,54c-3,21 -18,57 -31,81l-25,42l37,128c47,161 120,342 167,413c125,189 286,262 470,214z"/>
   </g>
   <g id="svg_11" transform="matrix(0.1333 0 0 -0.1333 7.0383 159.944)">
    <path id="svg_12" fill-rule=" nonzero" fill=" rgb(255,255,255)" stroke-miterlimit="4" stroke-linejoin=" miter" stroke-dashoffset="0" stroke-dasharray=" none" stroke=" none" stroke-linecap=" butt" d="m-17966.91849,17770.7243c-18,-104 -64,-204 -136,-293c-36,-44 -73,-84 -84,-90c-11,-6 -20,-15 -20,-20c0,-14 39,-96 71,-150c14,-25 75,-128 134,-230c60,-102 116,-196 125,-210c10,-14 56,-90 103,-170c47,-80 123,-208 169,-285c46,-77 98,-165 115,-195c17,-30 47,-82 66,-115c20,-33 40,-66 44,-73c5,-9 28,19 69,85c33,54 104,166 156,248c52,83 120,193 152,245c32,52 103,168 159,257c109,173 256,412 310,504l33,56l-49,53c-55,60 -112,136 -145,193c-28,49 -82,202 -82,233c0,13 -3,24 -8,24c-4,0 -41,-23 -82,-51c-100,-68 -147,-91 -260,-127c-140,-44 -233,-57 -316,-43c-140,24 -243,67 -380,156c-44,30 -92,57 -106,60c-25,6 -26,5 -38,-62z"/>
   </g>
   <g id="svg_13" transform="matrix(0.1333 0 0 -0.1333 -129.345 208.577)">
    <path id="svg_14" fill-rule=" nonzero" fill=" rgb(255,255,255)" stroke-miterlimit="4" stroke-linejoin=" miter" stroke-dashoffset="0" stroke-dasharray=" none" stroke=" none" stroke-linecap=" butt" d="m-17686.91849,17532.40424c-15,-16 -27,-35 -27,-40c0,-6 22,-67 50,-135c27,-69 57,-155 65,-192c9,-37 28,-110 44,-162c16,-53 36,-127 45,-166c11,-48 54,-144 138,-310c67,-132 126,-257 132,-277l12,-37l69,56c39,31 91,71 118,90l47,35l-28,36c-37,48 -54,76 -111,180c-26,48 -115,209 -198,357c-83,149 -170,308 -193,355c-42,83 -129,240 -134,240c-2,0 -15,-13 -29,-30z"/>
   </g>
   <g id="svg_15" transform="matrix(0.1333 0 0 -0.1333 157.205 180.435)">
    <path id="svg_16" fill-rule=" nonzero" fill=" rgb(255,255,255)" stroke-miterlimit="4" stroke-linejoin=" miter" stroke-dashoffset="0" stroke-dasharray=" none" stroke=" none" stroke-linecap=" butt" d="m-17163.02298,17308.27484c0,-8 -19,-45 -43,-83c-123,-196 -417,-757 -404,-770c1,-1 37,7 80,19c73,19 81,19 147,5l70,-15l0,68c0,71 18,115 121,290c31,51 41,81 49,142c5,43 16,103 24,135c29,116 29,126 -1,176c-28,46 -43,57 -43,33z"/>
   </g>
   <g id="svg_17" transform="matrix(0.1333 0 0 -0.1333 280.643 298.318)">
    <path id="svg_18" fill-rule=" nonzero" fill=" rgb(255,255,255)" stroke-miterlimit="4" stroke-linejoin=" miter" stroke-dashoffset="0" stroke-dasharray=" none" stroke=" none" stroke-linecap=" butt" d="m-16858.99222,17962.58929c-91,-186 -143,-269 -202,-322c-93,-84 -187,-116 -336,-116c-194,1 -324,64 -413,202c-39,61 -105,213 -114,262c-4,21 -11,37 -16,37c-15,0 -46,-73 -53,-125c-13,-101 -30,-152 -78,-235c-27,-47 -55,-107 -64,-135c-18,-63 -29,-183 -17,-211c4,-12 35,-44 69,-72c106,-88 161,-196 171,-337c16,-228 -126,-430 -344,-490c-35,-10 -63,-19 -63,-21c0,-2 -7,-51 -16,-109c-19,-128 -12,-168 48,-293c23,-48 56,-123 74,-167c25,-61 37,-80 51,-78c10,1 74,7 143,14c176,18 641,15 865,-5c200,-19 319,-35 475,-66c111,-22 130,-21 130,7c0,44 55,226 92,307c106,232 125,707 41,1091c-11,51 -35,105 -88,200c-117,207 -139,266 -210,565c-34,146 -61,230 -74,230c-3,0 -35,-60 -71,-133z"/>
   </g>
   <g id="svg_19" transform="matrix(0.1333 0 0 -0.1333 44.8505 374.565)">
    <path id="svg_20" fill-rule=" nonzero" fill=" rgb(255,255,255)" stroke-miterlimit="4" stroke-linejoin=" miter" stroke-dashoffset="0" stroke-dasharray=" none" stroke=" none" stroke-linecap=" butt" d="m-16695.58011,17844.38324c-176,-59 -284,-210 -285,-400c0,-111 53,-224 148,-315l55,-52l-21,-85c-28,-115 -71,-201 -192,-385c-259,-395 -376,-538 -457,-560c-47,-12 -107,-1 -150,27c-40,26 -133,176 -298,478c-65,120 -118,215 -205,365c-45,80 -112,197 -148,260c-152,269 -162,282 -191,275c-14,-3 -33,-13 -41,-21c-13,-13 -7,-30 53,-148c37,-73 138,-256 223,-407c187,-329 308,-544 395,-699c73,-131 155,-222 216,-240c116,-34 205,-19 292,50c26,21 92,98 147,171c125,169 366,529 424,634c63,115 166,343 190,425c11,38 25,72 30,75c14,8 13,84 -1,126c-34,100 -140,126 -212,51c-14,-15 -38,-57 -53,-95c-15,-37 -33,-66 -38,-64c-24,7 -66,110 -66,161c0,100 82,221 177,261c89,38 211,12 292,-61c93,-84 122,-189 86,-311c-18,-60 -86,-141 -151,-179c-33,-19 -46,-35 -54,-62c-13,-47 -13,-62 0,-62c21,0 150,71 184,100c165,145 167,429 4,582c-102,96 -248,139 -353,105z"/>
   </g>
   <g id="svg_21" transform="matrix(0.1333 0 0 -0.1333 -678.668 675.398)">
    <path id="svg_22" fill-rule=" nonzero" fill=" rgb(255,255,255)" stroke-miterlimit="4" stroke-linejoin=" miter" stroke-dashoffset="0" stroke-dasharray=" none" stroke=" none" stroke-linecap=" butt" d="m-17356.91849,16936.40424c-25,-4 -27,-8 -27,-54c0,-48 1,-49 30,-49c30,0 30,1 30,55c0,30 -1,54 -2,54c-2,-1 -15,-4 -31,-6z"/>
   </g>
  </g>
  <g id="395397" transform="matrix(0.353066 0 0 0.341158 847.668 861.346)">
   <path id="svg_23" fill-rule=" nonzero" fill="#ffffff" stroke-miterlimit="4" stroke-linejoin=" miter" stroke-dashoffset="0" stroke-linecap=" butt" stroke-dasharray=" none" stroke=" none" d="m-2318.46377,-1735.19186l-21.16,0l0,49.31l-17.75,0l0,-131.83l38.91,0q12.51,0 21.76,2.89q9.25,2.9 15.32,8.24q6.07,5.33 9.06,12.88q2.99,7.54 2.99,16.83l0,0q0,9.2 -3.22,16.84q-3.22,7.64 -9.43,13.16q-6.21,5.52 -15.41,8.6q-9.2,3.08 -21.07,3.08l0,0zm-21.16,-68.45l0,54.28l21.16,0q7.64,0 13.48,-2.02q5.84,-2.03 9.8,-5.66q3.95,-3.63 5.98,-8.69q2.02,-5.06 2.02,-11.14l0,0q0,-12.6 -7.77,-19.68q-7.78,-7.09 -23.51,-7.09l0,0l-21.16,0zm124.39,23.09l0,0q8.37,0 15.45,2.81q7.09,2.81 12.24,8.1q5.15,5.29 8.05,13.06q2.9,7.77 2.9,17.71l0,0q0,3.86 -0.83,5.15q-0.83,1.29 -3.13,1.29l0,0l-62.01,0q0.19,8.83 2.39,15.36q2.21,6.54 6.08,10.91q3.86,4.37 9.2,6.53q5.33,2.16 11.96,2.16l0,0q6.16,0 10.62,-1.43q4.46,-1.42 7.68,-3.08q3.22,-1.65 5.39,-3.08q2.16,-1.43 3.72,-1.43l0,0q2.03,0 3.13,1.57l0,0l4.6,5.98q-3.04,3.68 -7.27,6.39q-4.23,2.72 -9.06,4.46q-4.83,1.75 -9.98,2.63q-5.15,0.87 -10.21,0.87l0,0q-9.66,0 -17.81,-3.27q-8.14,-3.26 -14.07,-9.56q-5.94,-6.31 -9.25,-15.6q-3.31,-9.29 -3.31,-21.34l0,0q0,-9.75 2.99,-18.22q2.99,-8.46 8.6,-14.67q5.61,-6.21 13.71,-9.75q8.1,-3.55 18.22,-3.55zm0.36,12.06l0,0q-11.86,0 -18.67,6.85q-6.81,6.85 -8.47,19l0,0l50.7,0q0,-5.71 -1.57,-10.44q-1.56,-4.74 -4.6,-8.19q-3.03,-3.45 -7.4,-5.34q-4.37,-1.88 -9.99,-1.88zm87.4,84.08l0,0q-11.04,0 -16.97,-6.16q-5.93,-6.16 -5.93,-17.76l0,0l0,-57.04l-11.23,0q-1.47,0 -2.48,-0.87q-1.01,-0.87 -1.01,-2.71l0,0l0,-6.54l15.27,-1.93l3.77,-28.79q0.18,-1.38 1.2,-2.26q1.01,-0.87 2.57,-0.87l0,0l8.28,0l0,32.11l26.68,0l0,11.86l-26.68,0l0,55.94q0,5.89 2.85,8.74q2.86,2.85 7.36,2.85l0,0q2.58,0 4.47,-0.69q1.88,-0.69 3.26,-1.52q1.38,-0.82 2.35,-1.51q0.96,-0.69 1.7,-0.69l0,0q1.29,0 2.3,1.56l0,0l4.78,7.82q-4.23,3.96 -10.21,6.21q-5.98,2.25 -12.33,2.25zm83.72,-50.78l-21.16,0l0,49.31l-17.75,0l0,-131.83l38.91,0q12.52,0 21.76,2.89q9.25,2.9 15.32,8.24q6.07,5.33 9.06,12.88q2.99,7.54 2.99,16.83l0,0q0,9.2 -3.22,16.84q-3.22,7.64 -9.43,13.16q-6.21,5.52 -15.41,8.6q-9.2,3.08 -21.07,3.08l0,0zm-21.16,-68.45l0,54.28l21.16,0q7.64,0 13.48,-2.02q5.84,-2.03 9.8,-5.66q3.96,-3.63 5.98,-8.69q2.02,-5.06 2.02,-11.14l0,0q0,-12.6 -7.77,-19.68q-7.77,-7.09 -23.51,-7.09l0,0l-21.16,0zm106.63,117.76l-16.37,0l0,-93.19l9.38,0q2.67,0 3.68,1.01q1.01,1.01 1.38,3.49l0,0l1.1,14.54q4.79,-9.75 11.83,-15.23q7.03,-5.47 16.51,-5.47l0,0q3.86,0 6.99,0.87q3.13,0.88 5.8,2.44l0,0l-2.12,12.24q-0.64,2.3 -2.85,2.3l0,0q-1.29,0 -3.96,-0.88q-2.66,-0.87 -7.45,-0.87l0,0q-8.55,0 -14.3,4.97q-5.75,4.97 -9.62,14.44l0,0l0,59.34zm94.67,-94.67l0,0q8.37,0 15.46,2.81q7.08,2.81 12.23,8.1q5.15,5.29 8.05,13.06q2.9,7.77 2.9,17.71l0,0q0,3.86 -0.83,5.15q-0.83,1.29 -3.13,1.29l0,0l-62,0q0.18,8.83 2.39,15.36q2.21,6.54 6.07,10.91q3.86,4.37 9.2,6.53q5.34,2.16 11.96,2.16l0,0q6.16,0 10.63,-1.43q4.46,-1.42 7.68,-3.08q3.22,-1.65 5.38,-3.08q2.16,-1.43 3.73,-1.43l0,0q2.02,0 3.12,1.57l0,0l4.6,5.98q-3.03,3.68 -7.26,6.39q-4.24,2.72 -9.07,4.46q-4.83,1.75 -9.98,2.63q-5.15,0.87 -10.21,0.87l0,0q-9.66,0 -17.8,-3.27q-8.14,-3.26 -14.08,-9.56q-5.93,-6.31 -9.24,-15.6q-3.32,-9.29 -3.32,-21.34l0,0q0,-9.75 2.99,-18.22q2.99,-8.46 8.61,-14.67q5.61,-6.21 13.7,-9.75q8.1,-3.55 18.22,-3.55zm0.37,12.06l0,0q-11.87,0 -18.68,6.85q-6.81,6.85 -8.46,19l0,0l50.69,0q0,-5.71 -1.56,-10.44q-1.57,-4.74 -4.6,-8.19q-3.04,-3.45 -7.41,-5.34q-4.37,-1.88 -9.98,-1.88zm87.4,84.08l0,0q-11.04,0 -16.98,-6.16q-5.93,-6.16 -5.93,-17.76l0,0l0,-57.04l-11.22,0q-1.48,0 -2.49,-0.87q-1.01,-0.87 -1.01,-2.71l0,0l0,-6.54l15.27,-1.93l3.77,-28.79q0.19,-1.38 1.2,-2.26q1.01,-0.87 2.58,-0.87l0,0l8.28,0l0,32.11l26.68,0l0,11.86l-26.68,0l0,55.94q0,5.89 2.85,8.74q2.85,2.85 7.36,2.85l0,0q2.57,0 4.46,-0.69q1.89,-0.69 3.27,-1.52q1.38,-0.82 2.34,-1.51q0.97,-0.69 1.7,-0.69l0,0q1.29,0 2.3,1.56l0,0l4.79,7.82q-4.23,3.96 -10.21,6.21q-5.98,2.25 -12.33,2.25zm68.63,0l0,0q-11.04,0 -16.97,-6.16q-5.94,-6.16 -5.94,-17.76l0,0l0,-57.04l-11.22,0q-1.47,0 -2.49,-0.87q-1.01,-0.87 -1.01,-2.71l0,0l0,-6.54l15.27,-1.93l3.78,-28.79q0.18,-1.38 1.19,-2.26q1.01,-0.87 2.58,-0.87l0,0l8.28,0l0,32.11l26.68,0l0,11.86l-26.68,0l0,55.94q0,5.89 2.85,8.74q2.85,2.85 7.36,2.85l0,0q2.58,0 4.46,-0.69q1.89,-0.69 3.27,-1.52q1.38,-0.82 2.34,-1.51q0.97,-0.69 1.71,-0.69l0,0q1.28,0 2.3,1.56l0,0l4.78,7.82q-4.23,3.96 -10.21,6.21q-5.98,2.25 -12.33,2.25zm119.69,-94.66l-51.98,120.7q-0.83,1.84 -2.07,2.94q-1.24,1.11 -3.82,1.11l0,0l-12.14,0l17.02,-36.99l-38.46,-87.76l14.17,0q2.12,0 3.31,1.05q1.2,1.06 1.75,2.35l0,0l24.93,58.7q0.83,2.02 1.43,4.04q0.6,2.03 1.06,4.14l0,0q0.64,-2.11 1.29,-4.14q0.64,-2.02 1.47,-4.14l0,0l24.19,-58.6q0.56,-1.47 1.89,-2.44q1.33,-0.96 2.9,-0.96l0,0l13.06,0z" font-weight="normal" font-style="normal" font-size="184" font-family="Lato" xml:space="preserve"/>
  </g>
 </g>
</svg>